<mxfile host="app.diagrams.net" agent="Mozilla/5.0 (Windows NT 10.0; Win64; x64) AppleWebKit/537.36 (KHTML, like Gecko) Chrome/141.0.0.0 Safari/537.36 Edg/141.0.0.0" version="28.2.7">
  <diagram name="Página-1" id="WuxUEZfPwQUmhZvct4pl">
    <mxGraphModel grid="1" page="1" gridSize="10" guides="1" tooltips="1" connect="1" arrows="1" fold="1" pageScale="1" pageWidth="1169" pageHeight="827" math="0" shadow="0">
      <root>
        <mxCell id="0" />
        <mxCell id="1" parent="0" />
        <mxCell id="6bBRm0SfUCQoNEFUKWLN-1" value="" style="whiteSpace=wrap;html=1;aspect=fixed;" vertex="1" parent="1">
          <mxGeometry x="130" width="772.5" height="772.5" as="geometry" />
        </mxCell>
        <mxCell id="6bBRm0SfUCQoNEFUKWLN-3" value="" style="rounded=0;whiteSpace=wrap;html=1;" vertex="1" parent="1">
          <mxGeometry x="250" y="50" width="550" height="270" as="geometry" />
        </mxCell>
        <mxCell id="RyVx_2g8ejBPWYrW1Y4M-10" value="" style="rounded=0;whiteSpace=wrap;html=1;" vertex="1" parent="1">
          <mxGeometry x="240" y="350" width="570" height="323.75" as="geometry" />
        </mxCell>
        <mxCell id="g4zUrPzOM-k23fn4Z1yn-10" value="validação de rankings" style="ellipse;whiteSpace=wrap;html=1;" vertex="1" parent="1">
          <mxGeometry x="500" y="570" width="120" height="80" as="geometry" />
        </mxCell>
        <mxCell id="g4zUrPzOM-k23fn4Z1yn-24" style="edgeStyle=orthogonalEdgeStyle;rounded=0;orthogonalLoop=1;jettySize=auto;html=1;dashed=1;exitX=0.012;exitY=0.609;exitDx=0;exitDy=0;exitPerimeter=0;" edge="1" parent="1" source="g4zUrPzOM-k23fn4Z1yn-10" target="g4zUrPzOM-k23fn4Z1yn-28">
          <mxGeometry relative="1" as="geometry">
            <mxPoint x="660" y="610" as="sourcePoint" />
            <mxPoint x="490" y="610" as="targetPoint" />
            <Array as="points">
              <mxPoint x="500" y="619" />
              <mxPoint x="500" y="620" />
            </Array>
          </mxGeometry>
        </mxCell>
        <mxCell id="g4zUrPzOM-k23fn4Z1yn-28" value="GET USER&amp;nbsp; INFORMATIONS&amp;nbsp;" style="ellipse;whiteSpace=wrap;html=1;" vertex="1" parent="1">
          <mxGeometry x="270" y="580" width="120" height="80" as="geometry" />
        </mxCell>
        <mxCell id="-kd7NfMeiV4Q8LPRzOCT-1" value="CompartilharResultados" style="ellipse;whiteSpace=wrap;html=1;" vertex="1" parent="1">
          <mxGeometry x="326.25" y="135" width="142.5" height="90" as="geometry" />
        </mxCell>
        <mxCell id="RyVx_2g8ejBPWYrW1Y4M-18" value="Batalhas" style="text;html=1;align=center;verticalAlign=middle;resizable=0;points=[];autosize=1;strokeColor=none;fillColor=none;" vertex="1" parent="1">
          <mxGeometry x="485" y="50" width="70" height="30" as="geometry" />
        </mxCell>
        <mxCell id="RyVx_2g8ejBPWYrW1Y4M-19" value="Gestão de batlhas" style="text;html=1;align=center;verticalAlign=middle;resizable=0;points=[];autosize=1;strokeColor=none;fillColor=none;" vertex="1" parent="1">
          <mxGeometry x="475" y="350" width="120" height="30" as="geometry" />
        </mxCell>
        <mxCell id="6bBRm0SfUCQoNEFUKWLN-5" value="&amp;lt;&amp;lt;includes&amp;gt;&amp;gt;" style="text;html=1;align=center;verticalAlign=middle;resizable=0;points=[];autosize=1;strokeColor=none;fillColor=none;" vertex="1" parent="1">
          <mxGeometry x="390" y="620" width="100" height="30" as="geometry" />
        </mxCell>
        <mxCell id="6bBRm0SfUCQoNEFUKWLN-28" value="" style="group" connectable="0" vertex="1" parent="1">
          <mxGeometry x="110" y="750" width="740" height="860" as="geometry" />
        </mxCell>
        <mxCell id="6bBRm0SfUCQoNEFUKWLN-38" value="" style="whiteSpace=wrap;html=1;aspect=fixed;" vertex="1" parent="6bBRm0SfUCQoNEFUKWLN-28">
          <mxGeometry x="73.75" y="176" width="660" height="660" as="geometry" />
        </mxCell>
        <mxCell id="6bBRm0SfUCQoNEFUKWLN-12" value="&lt;div style=&quot;text-align: left;&quot;&gt;RankingRepository&lt;/div&gt;" style="swimlane;fontStyle=1;align=center;verticalAlign=top;childLayout=stackLayout;horizontal=1;startSize=26;horizontalStack=0;resizeParent=1;resizeParentMax=0;resizeLast=0;collapsible=1;marginBottom=0;whiteSpace=wrap;html=1;" vertex="1" parent="6bBRm0SfUCQoNEFUKWLN-28">
          <mxGeometry x="530" y="230" width="160" height="136" as="geometry">
            <mxRectangle x="400" y="330" width="140" height="30" as="alternateBounds" />
          </mxGeometry>
        </mxCell>
        <mxCell id="6bBRm0SfUCQoNEFUKWLN-13" value="- id&lt;div&gt;- resultado&amp;nbsp;&lt;/div&gt;" style="text;strokeColor=none;fillColor=none;align=left;verticalAlign=top;spacingLeft=4;spacingRight=4;overflow=hidden;rotatable=0;points=[[0,0.5],[1,0.5]];portConstraint=eastwest;whiteSpace=wrap;html=1;" vertex="1" parent="6bBRm0SfUCQoNEFUKWLN-12">
          <mxGeometry y="26" width="160" height="40" as="geometry" />
        </mxCell>
        <mxCell id="6bBRm0SfUCQoNEFUKWLN-14" value="" style="line;strokeWidth=1;fillColor=none;align=left;verticalAlign=middle;spacingTop=-1;spacingLeft=3;spacingRight=3;rotatable=0;labelPosition=right;points=[];portConstraint=eastwest;strokeColor=inherit;" vertex="1" parent="6bBRm0SfUCQoNEFUKWLN-12">
          <mxGeometry y="66" width="160" height="10" as="geometry" />
        </mxCell>
        <mxCell id="6bBRm0SfUCQoNEFUKWLN-15" value="+ addUsuario ( id)&lt;div&gt;+AtualizarRanking (id, resultado)&lt;/div&gt;" style="text;strokeColor=none;fillColor=none;align=left;verticalAlign=top;spacingLeft=4;spacingRight=4;overflow=hidden;rotatable=0;points=[[0,0.5],[1,0.5]];portConstraint=eastwest;whiteSpace=wrap;html=1;" vertex="1" parent="6bBRm0SfUCQoNEFUKWLN-12">
          <mxGeometry y="76" width="160" height="60" as="geometry" />
        </mxCell>
        <mxCell id="6bBRm0SfUCQoNEFUKWLN-39" value="Diagrama de Classe" style="text;html=1;align=center;verticalAlign=middle;resizable=0;points=[];autosize=1;strokeColor=none;fillColor=none;" vertex="1" parent="6bBRm0SfUCQoNEFUKWLN-28">
          <mxGeometry x="305" y="199" width="130" height="30" as="geometry" />
        </mxCell>
        <mxCell id="VCW3XCuuCu5HM4YpQRf_-30" value="MatchMaking" style="swimlane;fontStyle=1;align=center;verticalAlign=top;childLayout=stackLayout;horizontal=1;startSize=26;horizontalStack=0;resizeParent=1;resizeParentMax=0;resizeLast=0;collapsible=1;marginBottom=0;whiteSpace=wrap;html=1;" vertex="1" parent="6bBRm0SfUCQoNEFUKWLN-28">
          <mxGeometry x="120" y="623.24" width="160" height="140" as="geometry" />
        </mxCell>
        <mxCell id="VCW3XCuuCu5HM4YpQRf_-31" value="fila: FilaDeBatalha" style="text;strokeColor=none;fillColor=none;align=left;verticalAlign=top;spacingLeft=4;spacingRight=4;overflow=hidden;rotatable=0;points=[[0,0.5],[1,0.5]];portConstraint=eastwest;whiteSpace=wrap;html=1;" vertex="1" parent="VCW3XCuuCu5HM4YpQRf_-30">
          <mxGeometry y="26" width="160" height="44" as="geometry" />
        </mxCell>
        <mxCell id="VCW3XCuuCu5HM4YpQRf_-32" value="" style="line;strokeWidth=1;fillColor=none;align=left;verticalAlign=middle;spacingTop=-1;spacingLeft=3;spacingRight=3;rotatable=0;labelPosition=right;points=[];portConstraint=eastwest;strokeColor=inherit;" vertex="1" parent="VCW3XCuuCu5HM4YpQRf_-30">
          <mxGeometry y="70" width="160" height="10" as="geometry" />
        </mxCell>
        <mxCell id="VCW3XCuuCu5HM4YpQRf_-33" value="+ validarRanking ()&amp;nbsp;&lt;div&gt;&lt;div&gt;+ formarBatalha ()&lt;/div&gt;&lt;/div&gt;" style="text;strokeColor=none;fillColor=none;align=left;verticalAlign=top;spacingLeft=4;spacingRight=4;overflow=hidden;rotatable=0;points=[[0,0.5],[1,0.5]];portConstraint=eastwest;whiteSpace=wrap;html=1;" vertex="1" parent="VCW3XCuuCu5HM4YpQRf_-30">
          <mxGeometry y="80" width="160" height="60" as="geometry" />
        </mxCell>
        <mxCell id="6bBRm0SfUCQoNEFUKWLN-24" value="FilaDeBatalha" style="swimlane;fontStyle=1;align=center;verticalAlign=top;childLayout=stackLayout;horizontal=1;startSize=26;horizontalStack=0;resizeParent=1;resizeParentMax=0;resizeLast=0;collapsible=1;marginBottom=0;whiteSpace=wrap;html=1;" vertex="1" parent="6bBRm0SfUCQoNEFUKWLN-28">
          <mxGeometry x="530" y="630" width="160" height="140" as="geometry" />
        </mxCell>
        <mxCell id="6bBRm0SfUCQoNEFUKWLN-25" value="&lt;br&gt;&lt;div&gt;- Jogadores : lista&lt;/div&gt;" style="text;strokeColor=none;fillColor=none;align=left;verticalAlign=top;spacingLeft=4;spacingRight=4;overflow=hidden;rotatable=0;points=[[0,0.5],[1,0.5]];portConstraint=eastwest;whiteSpace=wrap;html=1;" vertex="1" parent="6bBRm0SfUCQoNEFUKWLN-24">
          <mxGeometry y="26" width="160" height="44" as="geometry" />
        </mxCell>
        <mxCell id="6bBRm0SfUCQoNEFUKWLN-26" value="" style="line;strokeWidth=1;fillColor=none;align=left;verticalAlign=middle;spacingTop=-1;spacingLeft=3;spacingRight=3;rotatable=0;labelPosition=right;points=[];portConstraint=eastwest;strokeColor=inherit;" vertex="1" parent="6bBRm0SfUCQoNEFUKWLN-24">
          <mxGeometry y="70" width="160" height="10" as="geometry" />
        </mxCell>
        <mxCell id="6bBRm0SfUCQoNEFUKWLN-27" value="+ adicionar ( id, ranking )&lt;div&gt;+ remover ( id )&lt;/div&gt;" style="text;strokeColor=none;fillColor=none;align=left;verticalAlign=top;spacingLeft=4;spacingRight=4;overflow=hidden;rotatable=0;points=[[0,0.5],[1,0.5]];portConstraint=eastwest;whiteSpace=wrap;html=1;" vertex="1" parent="6bBRm0SfUCQoNEFUKWLN-24">
          <mxGeometry y="80" width="160" height="60" as="geometry" />
        </mxCell>
        <mxCell id="PbttGaD5aEfnwnz4NR7A-2" value="" style="endArrow=classic;html=1;rounded=0;entryX=1;entryY=-0.033;entryDx=0;entryDy=0;entryPerimeter=0;exitX=-0.004;exitY=1.082;exitDx=0;exitDy=0;exitPerimeter=0;" edge="1" parent="6bBRm0SfUCQoNEFUKWLN-28" source="6bBRm0SfUCQoNEFUKWLN-25" target="VCW3XCuuCu5HM4YpQRf_-33">
          <mxGeometry width="50" height="50" relative="1" as="geometry">
            <mxPoint x="353.75" y="736" as="sourcePoint" />
            <mxPoint x="403.75" y="686" as="targetPoint" />
          </mxGeometry>
        </mxCell>
        <mxCell id="PbttGaD5aEfnwnz4NR7A-3" value="" style="endArrow=classic;html=1;rounded=0;entryX=0.5;entryY=0;entryDx=0;entryDy=0;exitX=0.483;exitY=1.027;exitDx=0;exitDy=0;exitPerimeter=0;" edge="1" parent="6bBRm0SfUCQoNEFUKWLN-28" source="6bBRm0SfUCQoNEFUKWLN-15" target="6bBRm0SfUCQoNEFUKWLN-24">
          <mxGeometry width="50" height="50" relative="1" as="geometry">
            <mxPoint x="353.75" y="636" as="sourcePoint" />
            <mxPoint x="403.75" y="586" as="targetPoint" />
          </mxGeometry>
        </mxCell>
        <mxCell id="PbttGaD5aEfnwnz4NR7A-4" value="&lt;div style=&quot;text-align: left;&quot;&gt;Jogador&lt;/div&gt;" style="swimlane;fontStyle=1;align=center;verticalAlign=top;childLayout=stackLayout;horizontal=1;startSize=26;horizontalStack=0;resizeParent=1;resizeParentMax=0;resizeLast=0;collapsible=1;marginBottom=0;whiteSpace=wrap;html=1;" vertex="1" parent="6bBRm0SfUCQoNEFUKWLN-28">
          <mxGeometry x="305" y="390" width="160" height="164" as="geometry">
            <mxRectangle x="400" y="330" width="140" height="30" as="alternateBounds" />
          </mxGeometry>
        </mxCell>
        <mxCell id="PbttGaD5aEfnwnz4NR7A-5" value="- id&lt;div&gt;- resultado&amp;nbsp;&lt;/div&gt;&lt;div&gt;- Ranking&lt;/div&gt;" style="text;strokeColor=none;fillColor=none;align=left;verticalAlign=top;spacingLeft=4;spacingRight=4;overflow=hidden;rotatable=0;points=[[0,0.5],[1,0.5]];portConstraint=eastwest;whiteSpace=wrap;html=1;" vertex="1" parent="PbttGaD5aEfnwnz4NR7A-4">
          <mxGeometry y="26" width="160" height="54" as="geometry" />
        </mxCell>
        <mxCell id="PbttGaD5aEfnwnz4NR7A-6" value="" style="line;strokeWidth=1;fillColor=none;align=left;verticalAlign=middle;spacingTop=-1;spacingLeft=3;spacingRight=3;rotatable=0;labelPosition=right;points=[];portConstraint=eastwest;strokeColor=inherit;" vertex="1" parent="PbttGaD5aEfnwnz4NR7A-4">
          <mxGeometry y="80" width="160" height="24" as="geometry" />
        </mxCell>
        <mxCell id="PbttGaD5aEfnwnz4NR7A-7" value="+ participarBalha()&lt;div&gt;&amp;nbsp;&lt;/div&gt;" style="text;strokeColor=none;fillColor=none;align=left;verticalAlign=top;spacingLeft=4;spacingRight=4;overflow=hidden;rotatable=0;points=[[0,0.5],[1,0.5]];portConstraint=eastwest;whiteSpace=wrap;html=1;" vertex="1" parent="PbttGaD5aEfnwnz4NR7A-4">
          <mxGeometry y="104" width="160" height="60" as="geometry" />
        </mxCell>
        <mxCell id="PbttGaD5aEfnwnz4NR7A-8" value="" style="rhombus;whiteSpace=wrap;html=1;fillStyle=solid;fillColor=light-dark(#000000,#FFFFFF);rotation=60;" vertex="1" parent="6bBRm0SfUCQoNEFUKWLN-28">
          <mxGeometry x="457" y="560" width="35" height="20" as="geometry" />
        </mxCell>
        <mxCell id="PbttGaD5aEfnwnz4NR7A-9" value="" style="endArrow=none;html=1;rounded=0;entryX=0;entryY=0;entryDx=0;entryDy=0;exitX=1;exitY=0.5;exitDx=0;exitDy=0;" edge="1" parent="6bBRm0SfUCQoNEFUKWLN-28" source="PbttGaD5aEfnwnz4NR7A-8" target="6bBRm0SfUCQoNEFUKWLN-24">
          <mxGeometry width="50" height="50" relative="1" as="geometry">
            <mxPoint x="350" y="566" as="sourcePoint" />
            <mxPoint x="400" y="516" as="targetPoint" />
          </mxGeometry>
        </mxCell>
        <mxCell id="PbttGaD5aEfnwnz4NR7A-10" value="BatalhaService" style="swimlane;fontStyle=1;align=center;verticalAlign=top;childLayout=stackLayout;horizontal=1;startSize=26;horizontalStack=0;resizeParent=1;resizeParentMax=0;resizeLast=0;collapsible=1;marginBottom=0;whiteSpace=wrap;html=1;" vertex="1" parent="6bBRm0SfUCQoNEFUKWLN-28">
          <mxGeometry x="100" y="220" width="160" height="140" as="geometry" />
        </mxCell>
        <mxCell id="PbttGaD5aEfnwnz4NR7A-11" value="fila: FilaDeBatalha" style="text;strokeColor=none;fillColor=none;align=left;verticalAlign=top;spacingLeft=4;spacingRight=4;overflow=hidden;rotatable=0;points=[[0,0.5],[1,0.5]];portConstraint=eastwest;whiteSpace=wrap;html=1;" vertex="1" parent="PbttGaD5aEfnwnz4NR7A-10">
          <mxGeometry y="26" width="160" height="44" as="geometry" />
        </mxCell>
        <mxCell id="PbttGaD5aEfnwnz4NR7A-12" value="" style="line;strokeWidth=1;fillColor=none;align=left;verticalAlign=middle;spacingTop=-1;spacingLeft=3;spacingRight=3;rotatable=0;labelPosition=right;points=[];portConstraint=eastwest;strokeColor=inherit;" vertex="1" parent="PbttGaD5aEfnwnz4NR7A-10">
          <mxGeometry y="70" width="160" height="10" as="geometry" />
        </mxCell>
        <mxCell id="PbttGaD5aEfnwnz4NR7A-13" value="+ puharJogador()" style="text;strokeColor=none;fillColor=none;align=left;verticalAlign=top;spacingLeft=4;spacingRight=4;overflow=hidden;rotatable=0;points=[[0,0.5],[1,0.5]];portConstraint=eastwest;whiteSpace=wrap;html=1;" vertex="1" parent="PbttGaD5aEfnwnz4NR7A-10">
          <mxGeometry y="80" width="160" height="60" as="geometry" />
        </mxCell>
        <mxCell id="PbttGaD5aEfnwnz4NR7A-14" style="edgeStyle=orthogonalEdgeStyle;rounded=0;orthogonalLoop=1;jettySize=auto;html=1;entryX=-0.001;entryY=0.841;entryDx=0;entryDy=0;entryPerimeter=0;" edge="1" parent="6bBRm0SfUCQoNEFUKWLN-28" source="PbttGaD5aEfnwnz4NR7A-10" target="6bBRm0SfUCQoNEFUKWLN-13">
          <mxGeometry relative="1" as="geometry" />
        </mxCell>
        <mxCell id="PbttGaD5aEfnwnz4NR7A-16" value="" style="endArrow=classic;html=1;rounded=0;exitX=0.429;exitY=0.006;exitDx=0;exitDy=0;exitPerimeter=0;entryX=0.554;entryY=0.997;entryDx=0;entryDy=0;entryPerimeter=0;" edge="1" parent="6bBRm0SfUCQoNEFUKWLN-28" source="VCW3XCuuCu5HM4YpQRf_-30" target="PbttGaD5aEfnwnz4NR7A-13">
          <mxGeometry width="50" height="50" relative="1" as="geometry">
            <mxPoint x="310" y="500" as="sourcePoint" />
            <mxPoint x="360" y="450" as="targetPoint" />
          </mxGeometry>
        </mxCell>
        <mxCell id="6bBRm0SfUCQoNEFUKWLN-40" value="Diagrama de Caso de Uso" style="text;html=1;align=center;verticalAlign=middle;resizable=0;points=[];autosize=1;strokeColor=none;fillColor=none;" vertex="1" parent="1">
          <mxGeometry x="470" width="160" height="30" as="geometry" />
        </mxCell>
        <mxCell id="bPrIiPX8g7Pd2YYG29rp-4" value="Batalha" style="ellipse;whiteSpace=wrap;html=1;" vertex="1" parent="1">
          <mxGeometry x="660" y="145" width="110" height="80" as="geometry" />
        </mxCell>
        <mxCell id="Z2caVEa0xrOpmU4p6fbk-3" value="DB" style="shape=cylinder3;whiteSpace=wrap;html=1;boundedLbl=1;backgroundOutline=1;size=15;" vertex="1" parent="1">
          <mxGeometry x="250" y="430" width="60" height="80" as="geometry" />
        </mxCell>
        <mxCell id="Z2caVEa0xrOpmU4p6fbk-6" value="" style="endArrow=none;html=1;rounded=0;entryX=0.5;entryY=1;entryDx=0;entryDy=0;" edge="1" parent="1" source="VCW3XCuuCu5HM4YpQRf_-61" target="-kd7NfMeiV4Q8LPRzOCT-1">
          <mxGeometry width="50" height="50" relative="1" as="geometry">
            <mxPoint x="140" y="260" as="sourcePoint" />
            <mxPoint x="190" y="210" as="targetPoint" />
          </mxGeometry>
        </mxCell>
        <mxCell id="Z2caVEa0xrOpmU4p6fbk-8" value="" style="endArrow=none;html=1;rounded=0;entryX=0.583;entryY=0.998;entryDx=0;entryDy=0;entryPerimeter=0;exitX=0.107;exitY=0.185;exitDx=0;exitDy=0;exitPerimeter=0;" edge="1" parent="1" source="g4zUrPzOM-k23fn4Z1yn-28" target="Z2caVEa0xrOpmU4p6fbk-3">
          <mxGeometry width="50" height="50" relative="1" as="geometry">
            <mxPoint x="140" y="465" as="sourcePoint" />
            <mxPoint x="190" y="415" as="targetPoint" />
          </mxGeometry>
        </mxCell>
        <mxCell id="g4zUrPzOM-k23fn4Z1yn-2" value="Match making" style="ellipse;whiteSpace=wrap;html=1;" vertex="1" parent="1">
          <mxGeometry x="660" y="414" width="120" height="80" as="geometry" />
        </mxCell>
        <mxCell id="VCW3XCuuCu5HM4YpQRf_-11" value="gestão de filas&amp;nbsp;" style="ellipse;whiteSpace=wrap;html=1;" vertex="1" parent="1">
          <mxGeometry x="500" y="410" width="120" height="80" as="geometry" />
        </mxCell>
        <mxCell id="VCW3XCuuCu5HM4YpQRf_-15" value="" style="endArrow=none;html=1;rounded=0;" edge="1" parent="1" source="g4zUrPzOM-k23fn4Z1yn-10" target="VCW3XCuuCu5HM4YpQRf_-11">
          <mxGeometry width="50" height="50" relative="1" as="geometry">
            <mxPoint x="470" y="540" as="sourcePoint" />
            <mxPoint x="520" y="490" as="targetPoint" />
          </mxGeometry>
        </mxCell>
        <mxCell id="VCW3XCuuCu5HM4YpQRf_-16" value="" style="endArrow=none;html=1;rounded=0;entryX=0.998;entryY=0.559;entryDx=0;entryDy=0;entryPerimeter=0;" edge="1" parent="1" source="g4zUrPzOM-k23fn4Z1yn-2" target="VCW3XCuuCu5HM4YpQRf_-11">
          <mxGeometry width="50" height="50" relative="1" as="geometry">
            <mxPoint x="470" y="570" as="sourcePoint" />
            <mxPoint x="520" y="520" as="targetPoint" />
            <Array as="points" />
          </mxGeometry>
        </mxCell>
        <mxCell id="VCW3XCuuCu5HM4YpQRf_-61" value="AtualizarBanco" style="ellipse;whiteSpace=wrap;html=1;" vertex="1" parent="1">
          <mxGeometry x="337.5" y="420" width="120" height="80" as="geometry" />
        </mxCell>
        <mxCell id="VCW3XCuuCu5HM4YpQRf_-64" value="" style="endArrow=none;html=1;rounded=0;exitX=1;exitY=0.5;exitDx=0;exitDy=0;exitPerimeter=0;entryX=0.009;entryY=0.605;entryDx=0;entryDy=0;entryPerimeter=0;" edge="1" parent="1" source="Z2caVEa0xrOpmU4p6fbk-3" target="VCW3XCuuCu5HM4YpQRf_-61">
          <mxGeometry width="50" height="50" relative="1" as="geometry">
            <mxPoint x="480" y="530" as="sourcePoint" />
            <mxPoint x="530" y="480" as="targetPoint" />
          </mxGeometry>
        </mxCell>
        <mxCell id="b1XfGOe_td7tZaRb3JXF-2" value="" style="endArrow=classic;startArrow=classic;html=1;rounded=0;dashed=1;entryX=0.5;entryY=1;entryDx=0;entryDy=0;exitX=0.457;exitY=-0.012;exitDx=0;exitDy=0;exitPerimeter=0;" edge="1" parent="1" source="g4zUrPzOM-k23fn4Z1yn-2" target="bPrIiPX8g7Pd2YYG29rp-4">
          <mxGeometry width="50" height="50" relative="1" as="geometry">
            <mxPoint x="740" y="390" as="sourcePoint" />
            <mxPoint x="790" y="340" as="targetPoint" />
          </mxGeometry>
        </mxCell>
        <mxCell id="b1XfGOe_td7tZaRb3JXF-4" value="&amp;lt;&amp;lt;inlcude&amp;gt;&amp;gt;" style="edgeLabel;html=1;align=center;verticalAlign=middle;resizable=0;points=[];" vertex="1" connectable="0" parent="b1XfGOe_td7tZaRb3JXF-2">
          <mxGeometry x="0.1181" y="-1" relative="1" as="geometry">
            <mxPoint as="offset" />
          </mxGeometry>
        </mxCell>
      </root>
    </mxGraphModel>
  </diagram>
</mxfile>
